Patient4_TMGait_0pt7_01_right_29_GRF.mot
version=1
nRows=45
nColumns=19
inDegrees=no
endheader
time	F1x	F1y	F1z	M1x	M1y	M1z	F2x	F2y	F2z	M2x	M2y	M2z	EC1x	EC1y	EC1z	EC2x	EC2y	EC2z
32.86	22.4935	746.6684	58.9407	-281.3258	-58.4524	771.886	-15.762	23.3683	9.915	3.4842	-1.8104	27.2732	-0.0592	0.0182	-0.0073	-0.0462	0.0165	0.9585
32.8717	14.7159	748.2199	60.7379	-281.2823	-60.5332	768.379	-10.6799	16.8803	6.3533	2.7936	-0.87718	19.455	-0.0592	0.0182	-0.0073	-0.0462	0.0165	0.9585
32.8834	8.6083	749.0172	62.1091	-280.9397	-61.8868	764.0962	-6.4865	11.4319	3.4923	2.184	-0.18822	12.9469	-0.0592	0.0182	-0.0073	-0.0462	0.0165	0.9585
32.8951	4.4806	748.7555	62.9435	-280.2205	-62.4044	758.9558	-3.3643	7.3106	1.4142	1.7097	0.26644	8.0656	-0.0592	0.0182	-0.0073	-0.0462	0.0165	0.9585
32.9069	2.1858	747.2763	63.216	-279.0909	-62.1184	752.8542	-1.2695	4.522	0.043652	1.3887	0.53676	4.8061	-0.0592	0.0182	-0.0073	-0.0462	0.0165	0.9585
32.9186	1.3723	744.5704	62.9597	-277.5626	-61.1352	745.7842	-0.03664	2.8511	-0.75709	1.1992	0.67639	2.8963	-0.0592	0.0182	-0.0073	-0.0462	0.0165	0.9585
32.9303	1.6503	740.8328	62.254	-275.7113	-59.5981	737.8798	0.53041	2.0154	-1.1388	1.1038	0.73927	1.9893	-0.0592	0.0182	-0.0073	-0.0462	0.0165	0.9585
32.942	2.6506	736.3614	61.2066	-273.6454	-57.6624	729.3657	0.65488	1.7053	-1.2455	1.0551	0.76582	1.706	-0.0592	0.0182	-0.0073	-0.0462	0.0165	0.9585
32.9537	4.1375	731.5375	59.9695	-271.4961	-55.4905	720.5537	0.50224	1.6092	-1.1918	0.99606	0.78769	1.6764	-0.0592	0.0182	-0.0073	-0.0462	0.0165	0.9585
32.9654	5.9657	726.7763	58.6782	-269.4	-53.2066	711.7778	0.2082	1.458	-1.0721	0.87186	0.8289	1.5668	-0.0592	0.0182	-0.0073	-0.0462	0.0165	0.9585
32.9771	8.0847	722.4316	57.4763	-267.4667	-50.9215	703.3202	-0.13408	1.0051	-0.95038	0.62529	0.89739	1.0817	-0.0592	0.0182	-0.0073	-0.0462	0.0165	0.9585
32.9889	10.5394	718.8178	56.4758	-265.7835	-48.6964	695.4416	-0.44745	0.053953	-0.85831	0.204	0.98039	-0.014839	-0.0592	0.0182	-0.0073	-0.0462	0.0165	0.9585
33.0006	13.3762	716.1615	55.7954	-264.4064	-46.6059	688.3271	-0.65926	-1.5205	-0.80174	-0.4275	1.0442	-1.8848	-0.0592	0.0182	-0.0073	-0.0462	0.0165	0.9585
33.0123	16.6498	714.6227	55.5296	-263.3692	-44.708	682.1199	-0.69427	-3.7582	-0.76274	-1.2799	1.0326	-4.5716	-0.0592	0.0182	-0.0073	-0.0462	0.0165	0.9585
33.024	20.3896	714.2926	55.761	-262.6843	-43.0678	676.9353	-0.4611	-6.544	-0.69764	-2.31	0.86389	-7.9371	-0.0592	0.0182	-0.0073	-0.0462	0.0165	0.9585
33.0357	24.5747	715.1927	56.52	-262.3545	-41.723	672.8244	0.13971	-9.5096	-0.56259	-3.3851	0.4576	-11.5433	-0.0592	0.0182	-0.0073	-0.0462	0.0165	0.9585
33.0474	29.1543	717.3656	57.8006	-262.3957	-40.6875	669.8669	1.222	-11.9553	-0.29413	-4.2503	-0.29159	-14.5571	-0.0592	0.0182	-0.0073	-0.0462	0.0165	0.9585
33.0591	34.0785	720.8302	59.5591	-262.8254	-39.9384	668.1038	2.8604	-12.714	0.17236	-4.4839	-1.4789	-15.5751	-0.0592	0.0182	-0.0073	-0.0462	0.0165	0.9585
33.0709	39.2565	725.5588	61.731	-263.6499	-39.4432	667.5175	5.0784	-10.0893	0.90807	-3.4719	-3.1823	-12.578	-0.0592	0.0182	-0.0073	-0.0462	0.0165	0.9585
33.0826	44.6225	731.3037	64.1977	-264.8055	-39.1225	667.8789	7.7484	-1.8533	1.9618	-0.40721	-5.3996	-2.8934	-0.0592	0.0182	-0.0073	-0.0462	0.0165	0.9585
33.0943	50.064	737.3988	66.7889	-266.086	-38.874	668.6108	10.5878	14.6519	3.3286	5.6704	-7.998	16.6735	-0.0592	0.0182	-0.0073	-0.0462	0.0165	0.9585
33.106	55.4627	742.6392	69.2542	-267.1024	-38.5379	668.6589	12.963	42.1949	4.9053	15.7532	-10.6075	49.4824	-0.0592	0.0182	-0.0073	-0.0462	0.0165	0.9585
33.1177	60.674	745.2288	71.2727	-267.2566	-37.9077	666.5035	13.8772	83.0153	6.4552	30.6326	-12.5584	98.2561	-0.0592	0.0182	-0.0073	-0.0462	0.0165	0.9585
33.1294	65.5255	742.8586	72.4663	-265.7639	-36.7424	660.181	11.8226	137.8182	7.5342	50.5295	-12.7577	163.9116	-0.0592	0.0182	-0.0073	-0.0462	0.0165	0.9585
33.1411	69.7536	732.9825	72.4308	-261.7439	-34.8057	647.5636	5.0265	204.4915	7.4369	74.6391	-9.7386	243.9959	-0.0592	0.0182	-0.0073	-0.0462	0.0165	0.9585
33.1529	73.0605	713.2563	70.8257	-254.3753	-31.9354	626.7118	-7.0384	277.6665	5.3943	100.9541	-2.4216	332.1645	-0.0592	0.0182	-0.0073	-0.0462	0.0165	0.9585
33.1646	75.0303	682.0202	67.4261	-243.0659	-28.1034	596.297	-22.1137	348.8373	0.6468	126.3465	9.2234	418.1068	-0.0592	0.0182	-0.0073	-0.0462	0.0165	0.9585
33.1763	75.2737	638.6503	62.2647	-227.5785	-23.5089	555.8687	-36.6771	409.1727	-6.8316	147.6464	23.8056	490.8217	-0.0592	0.0182	-0.0073	-0.0462	0.0165	0.9585
33.188	73.4338	583.8806	55.5921	-208.1389	-18.5094	506.1576	-48.2133	454.5763	-15.7574	163.4197	38.8507	544.9773	-0.0592	0.0182	-0.0073	-0.0462	0.0165	0.9585
33.1997	69.3446	519.7436	47.9064	-185.4205	-13.5856	448.9693	-55.8266	486.2258	-25.002	174.1557	52.6565	581.8065	-0.0592	0.0182	-0.0073	-0.0462	0.0165	0.9585
33.2114	63.0745	449.3324	39.7866	-160.4708	-9.1758	387.0073	-59.6156	508.607	-33.445	181.5463	63.9802	606.706	-0.0592	0.0182	-0.0073	-0.0462	0.0165	0.9585
33.2231	54.9406	376.3768	31.7399	-134.5792	-5.5624	323.4365	-60.3047	526.6856	-40.3094	187.4518	72.2116	625.7381	-0.0592	0.0182	-0.0073	-0.0462	0.0165	0.9585
33.2349	45.4417	304.8633	24.1942	-109.1419	-2.8933	261.6003	-58.797	544.2872	-45.2514	193.2978	77.317	643.5698	-0.0592	0.0182	-0.0073	-0.0462	0.0165	0.9585
33.2466	35.3417	238.4476	17.4569	-85.4635	-1.1263	204.4919	-55.9131	563.7191	-48.3783	199.9178	79.7661	663.0045	-0.0592	0.0182	-0.0073	-0.0462	0.0165	0.9585
33.2583	25.4574	179.9728	11.8049	-64.5651	-0.17532	154.4129	-52.396	585.8369	-50.2569	207.5834	80.4949	685.1691	-0.0592	0.0182	-0.0073	-0.0462	0.0165	0.9585
33.27	16.5431	130.9895	7.3662	-47.021	0.14048	112.5479	-48.7734	610.3357	-51.5976	216.1241	80.5238	709.8294	-0.0592	0.0182	-0.0073	-0.0462	0.0165	0.9585
33.2817	9.0284	91.7439	4.1651	-32.9409	-0.03658	79.0469	-45.4713	636.0209	-53.1709	225.0495	80.8674	735.7171	-0.0592	0.0182	-0.0073	-0.0462	0.0165	0.9585
33.2934	3.0908	61.5275	2.0347	-22.0899	-0.50175	53.2633	-42.8539	661.342	-55.4018	233.7737	82.1312	761.0996	-0.0592	0.0182	-0.0073	-0.0462	0.0165	0.9585
33.3051	-1.2512	39.072	0.75421	-14.0259	-1.0662	34.1273	-41.1125	685.1416	-58.3919	241.8731	84.4881	784.674	-0.0592	0.0182	-0.0073	-0.0462	0.0165	0.9585
33.3169	-3.9778	22.9442	0.073665	-8.2409	-1.5227	20.4099	-40.2125	706.7786	-61.7859	249.1491	87.5407	805.6833	-0.0592	0.0182	-0.0073	-0.0462	0.0165	0.9585
33.3286	-5.1615	11.8192	-0.23679	-4.2586	-1.7127	10.9713	-39.9736	725.9002	-65.0996	255.5196	90.6886	823.6896	-0.0592	0.0182	-0.0073	-0.0462	0.0165	0.9585
33.3403	-5.0717	4.6155	-0.32157	-1.6876	-1.625	4.8557	-40.0964	742.1226	-67.8978	260.8877	93.3505	838.2163	-0.0592	0.0182	-0.0073	-0.0462	0.0165	0.9585
33.352	-4.301	0.52465	-0.30226	-0.22857	-1.3718	1.3719	-40.317	754.8996	-70.0054	265.085	95.2329	848.6385	-0.0592	0.0182	-0.0073	-0.0462	0.0165	0.9585
33.3637	-3.266	-1.3341	-0.20581	0.43303	-1.0906	-0.22551	-40.3941	763.8228	-71.4208	267.9756	96.2506	854.5104	-0.0592	0.0182	-0.0073	-0.0462	0.0165	0.9585
33.3754	-2.2615	-1.7272	-0.09776	0.56839	-0.83008	-0.56742	-40.18	768.9241	-72.2263	269.5702	96.4479	855.8937	-0.0592	0.0182	-0.0073	-0.0462	0.0165	0.9585
